<?xml version="1.0" encoding="utf-8"?>
<!-- Generator: Adobe Illustrator 26.5.0, SVG Export Plug-In . SVG Version: 6.00 Build 0)  -->
<svg version="1.1" id="Шар_1" xmlns="http://www.w3.org/2000/svg" xmlns:xlink="http://www.w3.org/1999/xlink" x="0px" y="0px"
	 viewBox="0 0 200 50" style="enable-background:new 0 0 200 50;" xml:space="preserve">
<style type="text/css">
	.st0{fill:none;}
	.st1{fill:none;stroke:#4D4D4D;stroke-width:0.5;stroke-miterlimit:10;}
</style>
<rect x="57.5" y="15.8" class="st0" width="117.4" height="3.8"/>
<g>
	<g>
		<path class="st1" d="M13.3,39L5.7,11.6h2.2c1.8,6.6,6,21.7,6.6,24.9h0c0.5-2.5,5-17.7,6.9-24.9h2.3c1.8,6.7,6.2,22.8,6.6,24.9h0
			c0.9-3.9,5.4-18.3,7.3-24.9h2.2L31.5,39h-2.4c-1.8-6.5-6.1-22.3-6.5-24.6h0c-0.7,3.6-4.9,17.8-6.9,24.6H13.3z"/>
		<path class="st1" d="M46.8,11.6V39h-2.1V11.6H46.8z"/>
		<path class="st1" d="M54.5,39V11.6h3.1c4.3,6.6,14.3,21.9,16,24.8h0c-0.2-4-0.2-8-0.2-12.4V11.6h2.2V39h-2.9
			c-4.1-6.3-14.2-22.3-16.2-25.3h0c0.2,3.6,0.2,7.6,0.2,12.6V39H54.5z"/>
		<path class="st1" d="M83.2,11.6h9.1c7.5,0,12.7,5.2,12.7,13.5c0,8.2-5.1,13.9-12.7,13.9h-9V11.6z M85.4,37H92
			c7.2,0,10.8-5.1,10.8-11.9c0-6-3.2-11.6-10.8-11.6h-6.6V37z"/>
		<path class="st1" d="M134,25.1c0,7.5-4,14.3-12.4,14.3c-7.7,0-12.2-6.2-12.2-14.1c0-7.7,4.3-14.1,12.5-14.1
			C129.4,11.2,134,17.1,134,25.1z M111.7,25.2c0,6.3,3.5,12.2,10.1,12.2c7.1,0,10.1-5.8,10.1-12.3c0-6.4-3.4-12-10-12
			C114.8,13.2,111.7,19,111.7,25.2z"/>
		<path class="st1" d="M144.8,39l-7.6-27.4h2.2c1.8,6.6,6,21.7,6.6,24.9h0c0.5-2.5,5-17.7,6.9-24.9h2.3c1.8,6.7,6.2,22.8,6.6,24.9h0
			c0.9-3.9,5.4-18.3,7.3-24.9h2.2L163.1,39h-2.4c-1.8-6.5-6.1-22.3-6.5-24.6h0c-0.7,3.6-4.9,17.8-6.9,24.6H144.8z"/>
		<path class="st1" d="M176.4,31.6c0.8,3.6,3.2,5.8,7.7,5.8c5,0,6.9-2.5,6.9-5.5c0-3.1-1.4-5-7.4-6.5c-5.8-1.4-8.3-3.3-8.3-7.3
			c0-3.6,2.6-7,8.5-7c6,0,8.6,3.7,8.9,7h-2.2c-0.6-2.9-2.5-5-6.8-5c-4,0-6.1,1.8-6.1,4.9c0,3,1.8,4.2,6.8,5.4c7.7,1.9,8.8,5,8.8,8.3
			c0,4-2.9,7.5-9.3,7.5c-6.8,0-9.3-4-9.9-7.7H176.4z"/>
	</g>
</g>
</svg>
