<?xml version="1.0" encoding="utf-8"?>
<!-- Generator: Adobe Illustrator 26.5.0, SVG Export Plug-In . SVG Version: 6.00 Build 0)  -->
<svg version="1.1" id="Шар_1" xmlns="http://www.w3.org/2000/svg" xmlns:xlink="http://www.w3.org/1999/xlink" x="0px" y="0px"
	 viewBox="0 0 200 50" style="enable-background:new 0 0 200 50;" xml:space="preserve">
<style type="text/css">
	.st0{fill:none;}
	.st1{fill:none;stroke:#4D4D4D;stroke-width:0.5;stroke-miterlimit:10;}
</style>
<rect x="57.5" y="15.8" class="st0" width="117.4" height="3.8"/>
<g>
	<g>
		<path class="st1" d="M7.4,7.4v20.8c0,9.1,5.1,11.5,10,11.5c5.7,0,10-2.4,10-11.5V7.4H30V28c0,10.7-5.7,14.1-12.8,14.1
			c-6.8,0-12.6-3.7-12.6-13.6V7.4H7.4z"/>
		<path class="st1" d="M39.5,7.4h12c6.6,0,10.1,3.5,10.1,8.4c0,4.1-2.5,6.7-5.3,7.5c2.5,0.7,6.5,3.1,6.5,8.5c0,6.9-5.1,9.9-11.1,9.9
			H39.5V7.4z M50.5,22.2c5.9,0,8.2-2.2,8.2-6.2c0-3.4-2.4-6.1-7.2-6.1h-9.5v12.3H50.5z M42.1,39.3h9.7c4.5,0,8.3-2.3,8.3-7.3
			c0-4.4-2.8-7.4-9.7-7.4h-8.2V39.3z"/>
		<path class="st1" d="M72.7,7.4v20.8c0,9.1,5.1,11.5,10,11.5c5.7,0,10-2.4,10-11.5V7.4h2.7V28c0,10.7-5.7,14.1-12.8,14.1
			c-6.8,0-12.6-3.7-12.6-13.6V7.4H72.7z"/>
		<path class="st1" d="M104.8,41.7V7.4h3.9c5.3,8.2,17.9,27.4,20,31.1h0c-0.3-5-0.2-10-0.2-15.6V7.4h2.7v34.3h-3.6
			c-5.1-7.9-17.8-27.9-20.3-31.7h0c0.2,4.5,0.2,9.5,0.2,15.7v15.9H104.8z"/>
		<path class="st1" d="M147.9,9.9h-11.5V7.4h25.8v2.5h-11.6v31.9h-2.7V9.9z"/>
		<path class="st1" d="M169.8,7.4v20.8c0,9.1,5.1,11.5,10,11.5c5.7,0,10-2.4,10-11.5V7.4h2.7V28c0,10.7-5.7,14.1-12.8,14.1
			c-6.8,0-12.6-3.7-12.6-13.6V7.4H169.8z"/>
	</g>
</g>
</svg>
