<?xml version="1.0" encoding="utf-8"?>
<!-- Generator: Adobe Illustrator 26.5.0, SVG Export Plug-In . SVG Version: 6.00 Build 0)  -->
<svg version="1.1" id="Шар_1" xmlns="http://www.w3.org/2000/svg" xmlns:xlink="http://www.w3.org/1999/xlink" x="0px" y="0px"
	 viewBox="0 0 200 50" style="enable-background:new 0 0 200 50;" xml:space="preserve">
<style type="text/css">
	.st0{fill:none;}
	.st1{fill:none;stroke:#4D4D4D;stroke-width:0.5;stroke-miterlimit:10;}
</style>
<rect x="57.5" y="15.8" class="st0" width="117.4" height="3.8"/>
<g>
	<g>
		<path class="st1" d="M7.2,8.9h2.6v14.5h19.9V8.9h2.6v33.2h-2.6V25.8H9.8v16.4H7.2V8.9z"/>
		<path class="st1" d="M44.1,8.9v33.2h-2.6V8.9H44.1z"/>
		<path class="st1" d="M53.6,33.2c1,4.4,3.9,7,9.4,7c6.1,0,8.4-3,8.4-6.6c0-3.7-1.7-6.1-9-7.9c-7-1.8-10.1-4-10.1-8.8
			c0-4.4,3.2-8.4,10.3-8.4c7.3,0,10.4,4.5,10.8,8.5h-2.7c-0.8-3.6-3.1-6.1-8.3-6.1c-4.8,0-7.4,2.2-7.4,5.9c0,3.7,2.2,5.1,8.3,6.6
			c9.3,2.3,10.7,6.1,10.7,10.1c0,4.9-3.6,9.1-11.2,9.1c-8.3,0-11.3-4.8-12-9.3H53.6z"/>
		<path class="st1" d="M88,11.3H76.9V8.9h25v2.4H90.6v30.8H88V11.3z"/>
		<path class="st1" d="M134.6,25.3c0,9.1-4.8,17.3-15.1,17.3c-9.3,0-14.8-7.5-14.8-17.1c0-9.4,5.3-17.1,15.1-17.1
			C129,8.4,134.6,15.6,134.6,25.3z M107.5,25.4c0,7.6,4.2,14.8,12.2,14.8c8.6,0,12.2-7,12.2-14.9c0-7.7-4.1-14.5-12.1-14.5
			C111.3,10.8,107.5,17.9,107.5,25.4z"/>
		<path class="st1" d="M144.6,26.6v15.5h-2.6V8.9h11.9c6.5,0,10,3.5,10,8.7c0,4.2-2.5,7-6.2,7.8c3.4,0.8,5.7,3,5.7,8.7v1.3
			c0,2.3-0.2,5.5,0.4,6.7h-2.6c-0.6-1.4-0.5-4.1-0.5-6.9v-0.9c0-5.5-1.6-7.7-8-7.7H144.6z M144.6,24.2h8c5.8,0,8.5-2.2,8.5-6.5
			c0-4.1-2.7-6.4-7.8-6.4h-8.7V24.2z"/>
		<path class="st1" d="M179.1,42.1V29.6c0-0.3-0.1-0.6-0.2-0.8L167,8.9h3c3.3,5.6,9.1,15.5,10.5,17.9c1.4-2.5,7.3-12.2,10.8-17.9
			h2.8l-12.4,20.2c-0.1,0.2-0.1,0.4-0.1,0.7v12.3H179.1z"/>
	</g>
</g>
</svg>
