<?xml version="1.0" encoding="utf-8"?>
<!-- Generator: Adobe Illustrator 26.5.0, SVG Export Plug-In . SVG Version: 6.00 Build 0)  -->
<svg version="1.1" id="Шар_1" xmlns="http://www.w3.org/2000/svg" xmlns:xlink="http://www.w3.org/1999/xlink" x="0px" y="0px"
	 viewBox="0 0 200 50" style="enable-background:new 0 0 200 50;" xml:space="preserve">
<style type="text/css">
	.st0{fill:none;}
	.st1{fill:none;stroke:#4D4D4D;stroke-width:0.5;stroke-miterlimit:10;}
</style>
<rect x="57.5" y="15.8" class="st0" width="117.4" height="3.8"/>
<g>
	<g>
		<path class="st1" d="M4.3,12.7h10.9c5.6,0,9.4,3.1,9.4,8.5c0,5.5-3.8,8.7-9.7,8.7H6.7v13.3H4.3V12.7z M6.7,27.7h8.4
			c4.9,0,7-2.6,7-6.4c0-4.1-2.7-6.4-6.8-6.4H6.7V27.7z"/>
		<path class="st1" d="M56.5,27.7c0,8.3-4.4,15.9-13.8,15.9c-8.6,0-13.6-6.9-13.6-15.7c0-8.6,4.8-15.7,13.9-15.7
			C51.3,12.2,56.5,18.8,56.5,27.7z M31.6,27.8c0,7,3.9,13.6,11.2,13.6C50.7,41.4,54,35,54,27.7c0-7.1-3.7-13.3-11.1-13.3
			C35.1,14.4,31.6,20.9,31.6,27.8z"/>
		<path class="st1" d="M63.5,35c0.9,4.1,3.6,6.4,8.6,6.4c5.6,0,7.7-2.8,7.7-6.1c0-3.4-1.5-5.6-8.2-7.2c-6.4-1.6-9.2-3.7-9.2-8.1
			c0-4,2.9-7.8,9.5-7.8c6.7,0,9.5,4.1,9.9,7.8h-2.4c-0.7-3.3-2.8-5.6-7.6-5.6c-4.4,0-6.8,2-6.8,5.4c0,3.4,2,4.7,7.6,6.1
			c8.6,2.1,9.8,5.6,9.8,9.2c0,4.5-3.3,8.4-10.3,8.4c-7.6,0-10.4-4.4-11-8.5H63.5z"/>
		<path class="st1" d="M89,35c0.9,4.1,3.6,6.4,8.6,6.4c5.6,0,7.7-2.8,7.7-6.1c0-3.4-1.5-5.6-8.2-7.2c-6.4-1.6-9.2-3.7-9.2-8.1
			c0-4,2.9-7.8,9.5-7.8c6.7,0,9.5,4.1,9.9,7.8h-2.4c-0.7-3.3-2.8-5.6-7.6-5.6c-4.4,0-6.8,2-6.8,5.4c0,3.4,2,4.7,7.6,6.1
			c8.6,2.1,9.8,5.6,9.8,9.2c0,4.5-3.3,8.4-10.3,8.4c-7.6,0-10.4-4.4-11-8.5H89z"/>
		<path class="st1" d="M116.7,12.7v30.5h-2.4V12.7H116.7z"/>
		<path class="st1" d="M125.3,12.7h10.6c5.8,0,9,3.1,9,7.5c0,3.6-2.2,6-4.7,6.7c2.2,0.6,5.8,2.7,5.8,7.5c0,6.1-4.6,8.8-9.9,8.8
			h-10.8V12.7z M135.1,25.8c5.3,0,7.3-2,7.3-5.5c0-3-2.1-5.4-6.4-5.4h-8.4v10.9H135.1z M127.6,41h8.6c4,0,7.4-2,7.4-6.5
			c0-3.9-2.5-6.5-8.6-6.5h-7.3V41z"/>
		<path class="st1" d="M152.6,12.7h2.4V41h16.4l-0.4,2.2h-18.3V12.7z"/>
		<path class="st1" d="M183,43.1V31.7c0-0.3-0.1-0.6-0.2-0.7l-10.9-18.3h2.7c3,5.2,8.4,14.2,9.7,16.5c1.3-2.3,6.7-11.2,9.9-16.5h2.6
			l-11.4,18.5c-0.1,0.2-0.1,0.3-0.1,0.7v11.3H183z"/>
	</g>
</g>
</svg>
