<?xml version="1.0" encoding="utf-8"?>
<!-- Generator: Adobe Illustrator 26.5.0, SVG Export Plug-In . SVG Version: 6.00 Build 0)  -->
<svg version="1.1" id="Шар_1" xmlns="http://www.w3.org/2000/svg" xmlns:xlink="http://www.w3.org/1999/xlink" x="0px" y="0px"
	 viewBox="0 0 200 50" style="enable-background:new 0 0 200 50;" xml:space="preserve">
<style type="text/css">
	.st0{fill:none;}
	.st1{fill:none;stroke:#4D4D4D;stroke-width:0.5;stroke-miterlimit:10;}
</style>
<rect x="57.5" y="15.8" class="st0" width="117.4" height="3.8"/>
<g>
	<g>
		<path class="st1" d="M17.7,42.4L5.7,10h2.7l6.3,17c1.8,4.9,3.8,10.3,4.5,13.1h0.1c0.7-2.4,2.9-8.1,4.7-12.9L30.6,10h2.6L20.7,42.4
			H17.7z"/>
		<path class="st1" d="M57.5,26.5H40.9v13.6H59l-0.4,2.3H38.4V10h19.9v2.3H40.9v11.9h16.5V26.5z"/>
		<path class="st1" d="M68,27.2v15.2h-2.5V10h11.6c6.4,0,9.8,3.4,9.8,8.5c0,4.1-2.5,6.8-6.1,7.6c3.3,0.8,5.6,3,5.6,8.5v1.3
			c0,2.3-0.2,5.3,0.4,6.6h-2.5c-0.6-1.4-0.5-4-0.5-6.8v-0.8c0-5.3-1.6-7.6-7.8-7.6H68z M68,24.9h7.8c5.7,0,8.3-2.1,8.3-6.4
			c0-4-2.6-6.3-7.6-6.3H68V24.9z"/>
		<path class="st1" d="M94.8,33.7c1,4.3,3.8,6.9,9.2,6.9c5.9,0,8.2-3,8.2-6.5c0-3.7-1.6-5.9-8.8-7.7c-6.9-1.7-9.8-3.9-9.8-8.6
			c0-4.3,3.1-8.3,10.1-8.3c7.1,0,10.2,4.4,10.6,8.3h-2.6c-0.7-3.5-3-6-8.1-6c-4.7,0-7.2,2.2-7.2,5.8c0,3.6,2.1,5,8.1,6.4
			c9.1,2.3,10.5,5.9,10.5,9.8c0,4.8-3.5,8.9-11,8.9c-8.1,0-11.1-4.7-11.7-9.1H94.8z"/>
		<path class="st1" d="M124.3,10v32.4h-2.5V10H124.3z"/>
		<path class="st1" d="M160.6,26c0,8.9-4.7,16.9-14.7,16.9c-9.1,0-14.5-7.4-14.5-16.7c0-9.2,5.1-16.7,14.8-16.7
			C155.1,9.5,160.6,16.5,160.6,26z M134.1,26c0,7.5,4.1,14.5,11.9,14.5c8.4,0,11.9-6.9,11.9-14.6c0-7.6-4-14.2-11.8-14.2
			C137.8,11.8,134.1,18.7,134.1,26z"/>
		<path class="st1" d="M167.8,42.4V10h3.7c5.1,7.8,16.9,25.9,19,29.4h0c-0.3-4.7-0.2-9.5-0.2-14.7V10h2.5v32.4h-3.4
			c-4.8-7.5-16.9-26.4-19.2-29.9h0c0.2,4.3,0.2,9,0.2,14.9v15.1H167.8z"/>
	</g>
</g>
</svg>
