<?xml version="1.0" encoding="utf-8"?>
<!-- Generator: Adobe Illustrator 26.5.0, SVG Export Plug-In . SVG Version: 6.00 Build 0)  -->
<svg version="1.1" id="Шар_1" xmlns="http://www.w3.org/2000/svg" xmlns:xlink="http://www.w3.org/1999/xlink" x="0px" y="0px"
	 viewBox="0 0 200 50" style="enable-background:new 0 0 200 50;" xml:space="preserve">
<style type="text/css">
	.st0{fill:none;}
	.st1{fill:none;stroke:#4D4D4D;stroke-width:0.5;stroke-miterlimit:10;}
</style>
<rect x="57.5" y="15.8" class="st0" width="117.4" height="3.8"/>
<g>
	<g>
		<path class="st1" d="M10.5,6.4h12.1c10,0,17,7,17,18c0,10.9-6.8,18.6-17,18.6H10.5V6.4z M13.4,40.4h8.8c9.7,0,14.4-6.8,14.4-15.8
			C36.6,16.5,32.4,9,22.2,9h-8.8V40.4z"/>
		<path class="st1" d="M69.2,25H50.5v15.4H71L70.6,43H47.7V6.4h22.4V9H50.5v13.4h18.7V25z"/>
		<path class="st1" d="M78.2,6.4H91c7,0,10.8,3.7,10.8,9c0,4.3-2.6,7.2-5.6,8c2.6,0.7,7,3.3,7,9c0,7.3-5.5,10.6-11.9,10.6h-13V6.4z
			 M90,22.1c6.3,0,8.7-2.4,8.7-6.6c0-3.6-2.5-6.5-7.6-6.5H81v13.1H90z M81,40.4h10.3c4.8,0,8.8-2.4,8.8-7.8c0-4.7-3-7.8-10.4-7.8H81
			V40.4z"/>
		<path class="st1" d="M113.8,6.4V43H111V6.4H113.8z"/>
		<path class="st1" d="M127.8,30.4L123.2,43h-2.9l13.4-36.6h3.3l14,36.6H148l-4.8-12.7H127.8z M142.3,27.7
			c-4.1-10.9-6.2-16.1-6.9-18.6h-0.1c-0.9,2.8-3.2,9.3-6.5,18.6H142.3z"/>
		<path class="st1" d="M157.6,43V6.4h4.2c5.7,8.8,19.1,29.2,21.4,33.2h0.1c-0.3-5.3-0.3-10.7-0.3-16.6V6.4h2.9V43h-3.9
			c-5.4-8.5-19-29.8-21.6-33.8h-0.1c0.3,4.8,0.2,10.1,0.2,16.8v17H157.6z"/>
	</g>
</g>
</svg>
