<?xml version="1.0" encoding="utf-8"?>
<!-- Generator: Adobe Illustrator 26.5.0, SVG Export Plug-In . SVG Version: 6.00 Build 0)  -->
<svg version="1.1" id="Шар_1" xmlns="http://www.w3.org/2000/svg" xmlns:xlink="http://www.w3.org/1999/xlink" x="0px" y="0px"
	 viewBox="0 0 200 50" style="enable-background:new 0 0 200 50;" xml:space="preserve">
<style type="text/css">
	.st0{fill:none;stroke:#4D4D4D;stroke-width:0.5;stroke-miterlimit:10;}
	.st1{fill:none;}
</style>
<g>
	<g>
		<path class="st0" d="M4.2,34.1L6,32C7.8,33.8,10.3,35,13,35c3.3,0,5.1-1.6,5.1-3.7c0-2.5-1.8-3.3-4.2-4.3l-3.4-1.5
			c-2.3-0.9-5.1-2.6-5.1-6.1c0-3.6,3.3-6.3,7.8-6.3c3,0,5.6,1.2,7.3,2.9l-1.6,2c-1.6-1.4-3.4-2.2-5.8-2.2c-2.7,0-4.6,1.3-4.6,3.4
			c0,2.3,2.2,3.1,4.2,3.9l3.3,1.5c2.9,1.2,5.2,2.8,5.2,6.3c0,3.8-3.2,6.8-8.4,6.8C9.3,37.6,6.3,36.3,4.2,34.1z"/>
		<path class="st0" d="M27.2,13.5h7.2c5.2,0,8.8,1.8,8.8,7c0,5-3.6,7.3-8.8,7.3h-4.1v9.4h-3V13.5z M34,25.4c4.1,0,6.1-1.5,6.1-4.9
			c0-3.4-2-4.5-6.1-4.5h-3.8v9.4H34z"/>
		<path class="st0" d="M49.3,13.5H64v2.6H52.3v7.4h9.8V26h-9.8v8.6h12v2.6h-15V13.5z"/>
		<path class="st0" d="M69.2,25.4c0-7.6,4.4-12.3,10.6-12.3c2.9,0,5.1,1.4,6.5,2.9l-1.7,1.9c-1.2-1.3-2.8-2.1-4.8-2.1
			c-4.5,0-7.5,3.7-7.5,9.5c0,6,3,9.7,7.5,9.7c2.2,0,3.8-0.9,5.3-2.6l1.7,1.8c-1.8,2.2-4.2,3.4-7.3,3.4
			C73.7,37.6,69.2,33.1,69.2,25.4z"/>
		<path class="st0" d="M92,34.6h5.9V16.1H92v-2.6h14.8v2.6h-5.9v18.6h5.9v2.6H92V34.6z"/>
		<path class="st0" d="M115,13.5h14.6v2.6h-11.5v8h9.8v2.6h-9.8v10.6h-3V13.5z"/>
		<path class="st0" d="M135.4,34.6h5.9V16.1h-5.9v-2.6h14.8v2.6h-5.9v18.6h5.9v2.6h-14.8V34.6z"/>
		<path class="st0" d="M156,25.4c0-7.6,4.4-12.3,10.6-12.3c2.9,0,5.1,1.4,6.5,2.9l-1.7,1.9c-1.2-1.3-2.8-2.1-4.8-2.1
			c-4.5,0-7.5,3.7-7.5,9.5c0,6,3,9.7,7.5,9.7c2.2,0,3.8-0.9,5.3-2.6l1.7,1.8c-1.8,2.2-4.2,3.4-7.3,3.4C160.5,37.6,156,33.1,156,25.4
			z"/>
		<path class="st0" d="M177.7,34.1l1.8-2.1c1.8,1.8,4.3,2.9,6.9,2.9c3.3,0,5.1-1.6,5.1-3.7c0-2.5-1.8-3.3-4.2-4.3l-3.4-1.5
			c-2.3-0.9-5.1-2.6-5.1-6.1c0-3.6,3.3-6.3,7.8-6.3c3,0,5.6,1.2,7.3,2.9l-1.6,2c-1.6-1.4-3.4-2.2-5.8-2.2c-2.7,0-4.6,1.3-4.6,3.4
			c0,2.3,2.2,3.1,4.2,3.9l3.3,1.5c2.9,1.2,5.2,2.8,5.2,6.3c0,3.8-3.2,6.8-8.4,6.8C182.9,37.6,179.9,36.3,177.7,34.1z"/>
	</g>
</g>
<g>
	<g>
	</g>
</g>
<rect x="57.5" y="15.8" class="st1" width="117.4" height="3.8"/>
</svg>
