<?xml version="1.0" encoding="utf-8"?>
<!-- Generator: Adobe Illustrator 26.5.0, SVG Export Plug-In . SVG Version: 6.00 Build 0)  -->
<svg version="1.1" id="Шар_1" xmlns="http://www.w3.org/2000/svg" xmlns:xlink="http://www.w3.org/1999/xlink" x="0px" y="0px"
	 viewBox="0 0 200 50" style="enable-background:new 0 0 200 50;" xml:space="preserve">
<style type="text/css">
	.st0{fill:none;}
	.st1{fill:none;stroke:#4D4D4D;stroke-width:0.5;stroke-miterlimit:10;}
</style>
<rect x="57.5" y="15.8" class="st0" width="117.4" height="3.8"/>
<g>
	<g>
		<path class="st1" d="M4.3,9.6h18.5v2.2H6.6v11.5h15.2v2.2H6.6v14.7H4.3V9.6z"/>
		<path class="st1" d="M30.6,25.9v14.3h-2.4V9.6h11c6,0,9.2,3.2,9.2,8c0,3.9-2.3,6.4-5.7,7.2c3.1,0.7,5.2,2.8,5.2,8V34
			c0,2.1-0.2,5,0.4,6.2h-2.4c-0.6-1.3-0.4-3.8-0.4-6.4v-0.8c0-5-1.5-7.1-7.3-7.1H30.6z M30.6,23.7H38c5.4,0,7.9-2,7.9-6
			c0-3.8-2.4-5.9-7.2-5.9h-8V23.7z"/>
		<path class="st1" d="M73.6,25.2H58V38h17.1l-0.3,2.2H55.7V9.6h18.7v2.2H58V23h15.6V25.2z"/>
		<path class="st1" d="M99.1,25.2H83.5V38h17.1l-0.3,2.2H81.1V9.6h18.7v2.2H83.5V23h15.6V25.2z"/>
		<path class="st1" d="M118,9.6h10.7c5.9,0,9,3.1,9,7.5c0,3.6-2.2,6-4.7,6.7c2.2,0.6,5.8,2.8,5.8,7.6c0,6.1-4.6,8.8-9.9,8.8H118V9.6
			z M127.9,22.8c5.3,0,7.3-2,7.3-5.5c0-3-2.1-5.5-6.4-5.5h-8.5v11H127.9z M120.3,38h8.6c4,0,7.4-2,7.4-6.5c0-3.9-2.5-6.6-8.7-6.6
			h-7.3V38z"/>
		<path class="st1" d="M145.6,32c0.9,4.1,3.6,6.5,8.7,6.5c5.6,0,7.7-2.8,7.7-6.1c0-3.5-1.5-5.6-8.3-7.3c-6.5-1.6-9.3-3.7-9.3-8.1
			c0-4,2.9-7.8,9.5-7.8c6.7,0,9.6,4.1,10,7.8h-2.4c-0.7-3.3-2.8-5.6-7.6-5.6c-4.4,0-6.8,2.1-6.8,5.5c0,3.4,2,4.7,7.6,6.1
			c8.6,2.1,9.9,5.6,9.9,9.3c0,4.5-3.3,8.4-10.4,8.4c-7.6,0-10.4-4.5-11-8.6H145.6z"/>
		<path class="st1" d="M171,9.6h10.1c8.4,0,14.2,5.9,14.2,15c0,9.1-5.7,15.6-14.2,15.6H171V9.6z M173.4,38h7.4
			c8.1,0,12.1-5.7,12.1-13.2c0-6.7-3.6-13-12.1-13h-7.4V38z"/>
	</g>
</g>
</svg>
